<svg width="292" height="82" viewBox="0 0 292 82" fill="none" xmlns="http://www.w3.org/2000/svg">
<path fill-rule="evenodd" clip-rule="evenodd" d="M283.132 46.1089C282.947 44.8965 282.447 43.744 281.555 42.624H291.601L278.913 58.8094C279.089 58.4574 279.263 58.1108 279.435 57.7694C280.823 55.0064 282.042 52.5807 282.697 50.3919C283.148 48.8852 283.339 47.4685 283.132 46.1089ZM281.555 42.1226H291.601L278.913 25.937C279.089 26.2893 279.264 26.6362 279.435 26.9779L279.435 26.978C280.824 29.7408 282.042 32.1663 282.697 34.3548C283.148 35.8615 283.339 37.2782 283.132 38.6377C282.947 39.8501 282.447 41.0026 281.555 42.1226Z" fill="#FF0000"/>
<path fill-rule="evenodd" clip-rule="evenodd" d="M64.1898 15.974C66.3805 15.974 68.2455 15.2049 69.7853 13.6667C71.3839 12.0693 72.1832 10.1762 72.1832 7.98719C72.1832 5.79781 71.3839 3.93422 69.7853 2.39603C68.2455 0.798667 66.3805 0 64.1898 0C61.9992 0 60.1046 0.798667 58.506 2.39603C56.9666 3.93422 56.1969 5.79781 56.1969 7.98719C56.1969 10.1762 56.9666 12.0693 58.506 13.6667C60.1046 15.2049 61.9992 15.974 64.1898 15.974ZM57.5291 64.2513H70.851V43.8209H57.5291V64.2513ZM57.5291 40.8125V19.8787L70.851 19.8787V40.8125L57.5291 40.8125ZM87.6737 43.8209L79.2672 55.3766V64.2512H114.792V51.8269H97.1185L102.943 43.8209L87.6737 43.8209ZM105.131 40.8125H89.8623L96.0528 32.3028H80.1553V19.8785H113.904V28.7532L105.131 40.8125ZM122.752 43.8209V64.2514H136.074V43.8209L122.752 43.8209ZM136.074 40.8125L122.752 40.8125V19.8787H136.074V40.8125ZM145.821 43.8209V82H159.143V60.0799C162.222 63.6892 166.633 65.4936 172.376 65.4936C178.238 65.4936 183.241 63.2454 187.385 58.7488C191.158 54.6555 193.214 49.6797 193.552 43.8209H180.178C179.877 46.3218 178.904 48.3694 177.261 49.9633C175.307 51.9156 172.79 52.8918 169.711 52.8918C166.633 52.8918 164.087 51.9156 162.074 49.9633C160.479 48.3694 159.535 46.3218 159.242 43.8209H145.821ZM159.192 40.8125H145.821V19.8785H159.143V24.0498C162.222 20.4405 166.633 18.6361 172.376 18.6361C178.178 18.6361 183.181 20.9142 187.385 25.4697C191.264 29.6772 193.327 34.7917 193.576 40.8125H180.23C180.003 38.0816 179.013 35.8663 177.261 34.1664C175.307 32.2141 172.79 31.2379 169.711 31.2379C166.633 31.2379 164.087 32.2141 162.074 34.1664C160.373 35.8663 159.412 38.0816 159.192 40.8125ZM201.157 43.8209V64.2512H214.479V44.1947C214.479 44.0689 214.48 43.9443 214.483 43.8209H201.157ZM214.877 40.8125L201.157 40.8125V19.8785H214.479V27.777C215.308 24.9964 216.936 22.837 219.363 21.2988C221.85 19.7602 224.662 18.9911 227.801 18.9911V34.0781C224.485 33.5452 221.436 34.1077 218.653 35.7642C216.73 36.8679 215.472 38.5507 214.877 40.8125ZM230.562 43.8209C230.937 49.6292 233.199 54.6051 237.347 58.7488C241.845 63.2454 247.412 65.4936 254.04 65.4936C260.672 65.4936 266.239 63.2454 270.737 58.7488C274.885 54.6051 277.148 49.6292 277.523 43.8209H264.143C263.833 46.112 262.893 48.041 261.326 49.6083C259.373 51.5607 256.943 52.5368 254.04 52.5368C251.141 52.5368 248.711 51.5607 246.758 49.6083C245.191 48.041 244.251 46.112 243.941 43.8209H230.562ZM243.884 40.8125H230.535C230.812 34.8445 233.083 29.73 237.347 25.4697C241.903 20.9142 247.47 18.6361 254.04 18.6361C260.614 18.6361 266.181 20.9142 270.737 25.4697C275.001 29.73 277.274 34.8445 277.55 40.8125H264.2C263.966 38.2991 263.007 36.2022 261.326 34.5218C259.373 32.569 256.943 31.5929 254.04 31.5929C251.141 31.5929 248.711 32.569 246.758 34.5218C245.077 36.2022 244.118 38.2991 243.884 40.8125ZM47.7558 40.8125H34.3846C34.1641 38.0825 33.2037 35.8679 31.5031 34.1683C29.5493 32.216 27.003 31.2398 23.8651 31.2398C20.7271 31.2398 18.1812 32.216 16.2274 34.1683C14.5265 35.8679 13.566 38.0825 13.3455 40.8125H2.5913e-05C0.249498 34.7925 2.31352 29.6787 6.19143 25.4716C10.3951 20.9162 15.3985 18.638 21.2008 18.638C26.9438 18.638 31.3551 20.4425 34.4339 24.0517V2.13159L47.7558 2.13159V40.8125ZM0.0241413 43.8209C0.362034 49.6805 2.418 54.657 6.19143 58.7507C10.3359 63.2474 15.3393 65.4955 21.2008 65.4955C26.9438 65.4955 31.3551 63.6911 34.4339 60.0818V64.2531H47.7558V43.8209H34.3353C34.0427 46.3227 33.0987 48.3709 31.5031 49.9652C29.5493 51.9176 27.003 52.8937 23.8651 52.8937C20.7271 52.8937 18.1812 51.9176 16.2274 49.9652C14.6316 48.3709 13.6874 46.3227 13.3948 43.8209H0.0241413ZM129.413 15.974C131.604 15.974 133.469 15.2049 135.008 13.6667C136.607 12.0694 137.406 10.1762 137.406 7.98722C137.406 5.79784 136.607 3.93425 135.008 2.39606C133.469 0.798697 131.604 3.05176e-05 129.413 3.05176e-05C127.222 3.05176e-05 125.328 0.798697 123.729 2.39606C122.189 3.93425 121.42 5.79784 121.42 7.98722C121.42 10.1762 122.189 12.0694 123.729 13.6667C125.328 15.2049 127.222 15.974 129.413 15.974Z" fill="white"/>
</svg>
