<svg width="202" height="56" viewBox="0 0 202 56" fill="none" xmlns="http://www.w3.org/2000/svg">
<path fill-rule="evenodd" clip-rule="evenodd" d="M195.13 31.4979C194.999 30.6458 194.637 29.8363 193.98 29.0477H201.127L191.972 40.676C192.159 40.2993 192.344 39.9319 192.525 39.5732L192.607 39.411L192.607 39.411C192.905 38.82 193.192 38.2523 193.458 37.7061C194.039 36.5146 194.526 35.4197 194.833 34.3964C195.141 33.3726 195.27 32.4146 195.13 31.4979ZM193.98 28.8276H201.127L191.972 17.1992C192.159 17.576 192.344 17.9434 192.525 18.3022L192.607 18.4651C192.905 19.0559 193.192 19.6233 193.458 20.1693C194.039 21.3609 194.526 22.4557 194.833 23.479C195.141 24.5028 195.27 25.4608 195.13 26.3774C194.999 27.2296 194.637 28.039 193.98 28.8276Z" fill="#FF0000"/>
<path fill-rule="evenodd" clip-rule="evenodd" d="M45.0242 10.9091C46.5267 10.9091 47.8059 10.3838 48.862 9.33336C49.9584 8.24248 50.5066 6.94957 50.5066 5.45467C50.5066 3.95948 49.9584 2.68678 48.862 1.63631C47.8059 0.545431 46.5267 0 45.0242 0C43.5217 0 42.2223 0.545431 41.1259 1.63631C40.0701 2.68678 39.5421 3.95948 39.5421 5.45467C39.5421 6.94957 40.0701 8.24248 41.1259 9.33336C42.2223 10.3838 43.5217 10.9091 45.0242 10.9091ZM40.4558 43.879H49.5929V29.5597H40.4558V43.879ZM40.4558 28.2391V13.5757H49.5929V28.2391L40.4558 28.2391ZM61.3991 29.5597L55.3654 37.8183V43.879H79.7307V35.3941H67.609L71.8716 29.5597L61.3991 29.5597ZM72.8364 28.2391L62.364 28.2391L66.878 22.0606L55.9745 22.0606V13.5757H79.1216V19.6364L72.8364 28.2391ZM85.1902 29.5597V43.879H94.3273V29.5597H85.1902ZM94.3273 28.2391H85.1902V13.5757H94.3273V28.2391ZM101.014 29.5597V56H110.151V41.0301C112.263 43.495 115.288 44.7273 119.227 44.7273C123.247 44.7273 126.679 43.192 129.521 40.1211C132.188 37.2406 133.604 33.7203 133.769 29.5597H124.615C124.463 31.4352 123.784 32.9558 122.577 34.1212C121.237 35.4545 119.511 36.1212 117.399 36.1212C115.288 36.1212 113.542 35.4545 112.161 34.1212C110.99 32.9558 110.33 31.4352 110.183 29.5597H101.014ZM110.162 28.2391H101.014V13.5755H110.151V16.4242C112.263 13.9593 115.288 12.7271 119.227 12.7271C123.207 12.7271 126.638 14.2828 129.521 17.3939C132.26 20.3525 133.68 23.9677 133.78 28.2391H124.637C124.544 26.2046 123.857 24.5693 122.577 23.3331C121.237 21.9998 119.511 21.3331 117.399 21.3331C115.288 21.3331 113.542 21.9998 112.161 23.3331C110.919 24.5693 110.252 26.2046 110.162 28.2391ZM138.967 29.5597V43.8791H148.104V30.1819C148.104 29.9696 148.11 29.7622 148.121 29.5597H138.967ZM148.291 28.2391L138.967 28.2391V13.5758H148.104V18.9698C148.673 17.0709 149.789 15.5962 151.454 14.5457C153.16 13.495 155.089 12.9697 157.241 12.9697V23.273C154.967 22.9091 152.875 23.2932 150.967 24.4245C149.546 25.2368 148.654 26.5083 148.291 28.2391ZM159.114 29.5597C159.297 33.684 160.855 37.2044 163.787 40.1211C166.873 43.192 170.691 44.7273 175.237 44.7273C179.785 44.7273 183.604 43.192 186.689 40.1211C189.621 37.2044 191.18 33.684 191.363 29.5597H182.207C182.05 31.2862 181.392 32.7259 180.234 33.8788C178.894 35.2121 177.228 35.8788 175.237 35.8788C173.249 35.8788 171.582 35.2121 170.242 33.8788C169.084 32.7259 168.426 31.2862 168.269 29.5597H159.114ZM168.244 28.2391H159.102C159.213 24.0056 160.775 20.3904 163.787 17.3939C166.912 14.2828 170.73 12.7271 175.237 12.7271C179.746 12.7271 183.564 14.2828 186.689 17.3939C189.701 20.3904 191.264 24.0056 191.375 28.2391H182.232C182.135 26.3588 181.468 24.8043 180.234 23.5758C178.894 22.2422 177.228 21.5756 175.237 21.5756C173.249 21.5756 171.582 22.2422 170.242 23.5758C169.008 24.8043 168.341 26.3588 168.244 28.2391ZM33.7533 28.2391H24.6055C24.5146 26.2052 23.8482 24.5703 22.6062 23.3343C21.2661 22.001 19.5197 21.3344 17.3675 21.3344C15.2152 21.3344 13.4691 22.001 12.129 23.3343C10.8868 24.5703 10.2203 26.2052 10.1294 28.2391H0.987305C1.08749 23.9682 2.50713 20.3534 5.24572 17.3951C8.12888 14.2841 11.5605 12.7283 15.5401 12.7283C19.4791 12.7283 22.5047 13.9605 24.6163 16.4254V1.45557L33.7533 1.45557V28.2391ZM0.997913 29.5597C1.16288 33.7208 2.57897 37.2416 5.24572 40.1223C8.08827 43.1932 11.5199 44.7285 15.5401 44.7285C19.4791 44.7285 22.5047 43.4962 24.6163 41.0313V43.88H33.7533V29.5597H24.5845C24.4372 31.4357 23.7778 32.9568 22.6062 34.1224C21.2661 35.4557 19.5197 36.1224 17.3675 36.1224C15.2152 36.1224 13.4691 35.4557 12.129 34.1224C10.9572 32.9568 10.2977 31.4357 10.1504 29.5597H0.997913ZM89.7589 10.9091C91.2614 10.9091 92.5405 10.3838 93.5963 9.33336C94.6927 8.24248 95.2412 6.94957 95.2412 5.45467C95.2412 3.95948 94.6927 2.68678 93.5963 1.63631C92.5405 0.545431 91.2614 0 89.7589 0C88.2564 0 86.9569 0.545431 85.8605 1.63631C84.8044 2.68678 84.2765 3.95948 84.2765 5.45467C84.2765 6.94957 84.8044 8.24248 85.8605 9.33336C86.9569 10.3838 88.2564 10.9091 89.7589 10.9091Z" fill="black"/>
</svg>
