<svg width="20" height="20" viewBox="0 0 20 20" fill="none" xmlns="http://www.w3.org/2000/svg">
<path d="M3.3335 15H5.00016V16.6667H15.0002V3.33334H5.00016V5.00001H3.3335V2.50001C3.3335 2.27899 3.42129 2.06703 3.57757 1.91075C3.73385 1.75447 3.94582 1.66667 4.16683 1.66667H15.8335C16.0545 1.66667 16.2665 1.75447 16.4228 1.91075C16.579 2.06703 16.6668 2.27899 16.6668 2.50001V17.5C16.6668 17.721 16.579 17.933 16.4228 18.0893C16.2665 18.2455 16.0545 18.3333 15.8335 18.3333H4.16683C3.94582 18.3333 3.73385 18.2455 3.57757 18.0893C3.42129 17.933 3.3335 17.721 3.3335 17.5V15ZM5.00016 9.16667H10.8335V10.8333H5.00016V13.3333L0.833496 10L5.00016 6.66667V9.16667Z" fill="#DA1515"/>
</svg>
