<svg width="28" height="28" viewBox="0 0 28 28" fill="none" xmlns="http://www.w3.org/2000/svg">
<path d="M13.9997 10.5002C13.0714 10.5002 12.1812 10.8689 11.5248 11.5253C10.8684 12.1817 10.4997 13.0719 10.4997 14.0002C10.4997 14.9284 10.8684 15.8187 11.5248 16.475C12.1812 17.1314 13.0714 17.5002 13.9997 17.5002C14.9279 17.5002 15.8182 17.1314 16.4745 16.475C17.1309 15.8187 17.4997 14.9284 17.4997 14.0002C17.4997 13.0719 17.1309 12.1817 16.4745 11.5253C15.8182 10.8689 14.9279 10.5002 13.9997 10.5002ZM13.9997 8.16683C15.5468 8.16683 17.0305 8.78141 18.1245 9.87537C19.2184 10.9693 19.833 12.4531 19.833 14.0002C19.833 15.5473 19.2184 17.031 18.1245 18.125C17.0305 19.2189 15.5468 19.8335 13.9997 19.8335C12.4526 19.8335 10.9688 19.2189 9.87489 18.125C8.78092 17.031 8.16634 15.5473 8.16634 14.0002C8.16634 12.4531 8.78092 10.9693 9.87489 9.87537C10.9688 8.78141 12.4526 8.16683 13.9997 8.16683ZM21.583 7.87516C21.583 8.26194 21.4294 8.63287 21.1559 8.90636C20.8824 9.17985 20.5114 9.3335 20.1247 9.3335C19.7379 9.3335 19.367 9.17985 19.0935 8.90636C18.82 8.63287 18.6663 8.26194 18.6663 7.87516C18.6663 7.48839 18.82 7.11746 19.0935 6.84397C19.367 6.57048 19.7379 6.41683 20.1247 6.41683C20.5114 6.41683 20.8824 6.57048 21.1559 6.84397C21.4294 7.11746 21.583 7.48839 21.583 7.87516ZM13.9997 4.66683C11.1133 4.66683 10.642 4.675 9.29918 4.7345C8.38451 4.77766 7.77084 4.90016 7.20151 5.12183C6.69517 5.31783 6.33001 5.55233 5.94151 5.942C5.57635 6.2948 5.29559 6.72551 5.12017 7.202C4.89851 7.77366 4.77601 8.38616 4.73401 9.29966C4.67334 10.5877 4.66634 11.038 4.66634 14.0002C4.66634 16.8865 4.67451 17.3578 4.73401 18.7007C4.77717 19.6142 4.89967 20.229 5.12017 20.7972C5.31851 21.3047 5.55184 21.6698 5.93917 22.0572C6.33234 22.4492 6.69751 22.6837 7.19917 22.8773C7.77551 23.1002 8.38917 23.2238 9.29918 23.2658C10.5872 23.3265 11.0375 23.3335 13.9997 23.3335C16.886 23.3335 17.3573 23.3253 18.7002 23.2658C19.6125 23.2227 20.2273 23.1002 20.7967 22.8797C21.3018 22.6825 21.6693 22.448 22.0567 22.0607C22.4498 21.6675 22.6843 21.3023 22.878 20.8007C23.0997 20.2255 23.2233 19.6107 23.2653 18.7007C23.326 17.4127 23.333 16.9623 23.333 14.0002C23.333 11.1138 23.3248 10.6425 23.2653 9.29966C23.2222 8.38733 23.0997 7.77133 22.878 7.202C22.7022 6.726 22.4219 6.29545 22.0578 5.942C21.7052 5.57665 21.2744 5.29586 20.7978 5.12066C20.2262 4.899 19.6125 4.7765 18.7002 4.7345C17.4122 4.67383 16.9618 4.66683 13.9997 4.66683ZM13.9997 2.3335C17.1695 2.3335 17.565 2.34516 18.8087 2.4035C20.0512 2.46183 20.897 2.65666 21.6413 2.946C22.4113 3.24233 23.06 3.64366 23.7087 4.29116C24.3019 4.87437 24.761 5.57985 25.0538 6.3585C25.342 7.10166 25.538 7.94866 25.5963 9.19116C25.6512 10.4348 25.6663 10.8303 25.6663 14.0002C25.6663 17.17 25.6547 17.5655 25.5963 18.8092C25.538 20.0517 25.342 20.8975 25.0538 21.6418C24.7618 22.4209 24.3027 23.1266 23.7087 23.7092C23.1253 24.3022 22.4199 24.7612 21.6413 25.0543C20.8982 25.3425 20.0512 25.5385 18.8087 25.5968C17.565 25.6517 17.1695 25.6668 13.9997 25.6668C10.8298 25.6668 10.4343 25.6552 9.19067 25.5968C7.94817 25.5385 7.10234 25.3425 6.35801 25.0543C5.57906 24.7621 4.87346 24.3029 4.29067 23.7092C3.69732 23.126 3.23826 22.4205 2.94551 21.6418C2.65617 20.8987 2.46134 20.0517 2.40301 18.8092C2.34817 17.5655 2.33301 17.17 2.33301 14.0002C2.33301 10.8303 2.34467 10.4348 2.40301 9.19116C2.46134 7.9475 2.65617 7.10283 2.94551 6.3585C3.23745 5.57937 3.69661 4.8737 4.29067 4.29116C4.87362 3.6976 5.57917 3.23851 6.35801 2.946C7.10234 2.65666 7.94701 2.46183 9.19067 2.4035C10.4343 2.34866 10.8298 2.3335 13.9997 2.3335Z" fill="black"/>
</svg>
