<svg width="28" height="28" viewBox="0 0 28 28" fill="none" xmlns="http://www.w3.org/2000/svg">
<path d="M22.8733 8.16067C22.7847 7.813 22.5327 7.5505 22.2445 7.47C21.7347 7.3265 19.2497 6.99984 13.9997 6.99984C8.74967 6.99984 6.26701 7.3265 5.75251 7.47C5.46784 7.54934 5.21584 7.81184 5.12601 8.16067C4.99884 8.65534 4.66634 10.7285 4.66634 13.9998C4.66634 17.2712 4.99884 19.3432 5.12601 19.8402C5.21467 20.1867 5.46667 20.4492 5.75367 20.5285C6.26701 20.6732 8.74967 20.9998 13.9997 20.9998C19.2497 20.9998 21.7335 20.6732 22.2468 20.5297C22.5315 20.4503 22.7835 20.1878 22.8733 19.839C23.0005 19.3443 23.333 17.2665 23.333 13.9998C23.333 10.7332 23.0005 8.6565 22.8733 8.16067ZM25.1332 7.58084C25.6663 9.65984 25.6663 13.9998 25.6663 13.9998C25.6663 13.9998 25.6663 18.3398 25.1332 20.4188C24.8368 21.568 23.97 22.4722 22.8722 22.7778C20.8783 23.3332 13.9997 23.3332 13.9997 23.3332C13.9997 23.3332 7.12451 23.3332 5.12717 22.7778C4.02467 22.4675 3.15901 21.5645 2.86617 20.4188C2.33301 18.3398 2.33301 13.9998 2.33301 13.9998C2.33301 13.9998 2.33301 9.65984 2.86617 7.58084C3.16251 6.43167 4.02934 5.5275 5.12717 5.22184C7.12451 4.6665 13.9997 4.6665 13.9997 4.6665C13.9997 4.6665 20.8783 4.6665 22.8722 5.22184C23.9747 5.53217 24.8403 6.43517 25.1332 7.58084ZM11.6663 18.0832V9.9165L18.6663 13.9998L11.6663 18.0832Z" fill="black"/>
</svg>
