<svg width="28" height="28" viewBox="0 0 28 28" fill="none" xmlns="http://www.w3.org/2000/svg">
<path d="M13.9997 23.3335C16.475 23.3335 18.849 22.3502 20.5993 20.5998C22.3497 18.8495 23.333 16.4755 23.333 14.0002C23.333 11.5248 22.3497 9.15084 20.5993 7.4005C18.849 5.65016 16.475 4.66683 13.9997 4.66683C11.5243 4.66683 9.15035 5.65016 7.40001 7.4005C5.64967 9.15084 4.66634 11.5248 4.66634 14.0002C4.66634 16.4755 5.64967 18.8495 7.40001 20.5998C9.15035 22.3502 11.5243 23.3335 13.9997 23.3335ZM13.9997 25.6668C7.55618 25.6668 2.33301 20.4437 2.33301 14.0002C2.33301 7.55666 7.55618 2.3335 13.9997 2.3335C20.4432 2.3335 25.6663 7.55666 25.6663 14.0002C25.6663 20.4437 20.4432 25.6668 13.9997 25.6668ZM10.3713 15.3652L7.45701 14.4563C6.82701 14.2638 6.82351 13.8298 7.59818 13.5183L18.9533 9.13166C19.6125 8.86333 19.9858 9.20283 19.7723 10.0533L17.8392 19.1767C17.7038 19.8265 17.313 19.9817 16.7705 19.6818L13.7943 17.4792L12.4072 18.8185C12.2648 18.9562 12.1493 19.074 11.93 19.1032C11.7118 19.1335 11.5322 19.0682 11.4003 18.7065L10.3853 15.357L10.3713 15.3663V15.3652Z" fill="black"/>
</svg>
