<svg width="32" height="32" viewBox="0 0 32 32" fill="none" xmlns="http://www.w3.org/2000/svg">
<g opacity="0.5">
<path d="M6.43741 28L6.41075 28.0267L6.38275 28H3.98941C3.6385 27.9996 3.30208 27.86 3.05407 27.6117C2.80606 27.3635 2.66675 27.0269 2.66675 26.676V5.324C2.66919 4.97384 2.80928 4.63869 3.05677 4.39096C3.30425 4.14322 3.63926 4.00279 3.98941 4H28.0107C28.7414 4 29.3334 4.59333 29.3334 5.324V26.676C29.331 27.0262 29.1909 27.3613 28.9434 27.609C28.6959 27.8568 28.3609 27.9972 28.0107 28H6.43741ZM26.6667 20V6.66667H5.33341V25.3333L18.6667 12L26.6667 20ZM26.6667 23.7707L18.6667 15.7707L9.10408 25.3333H26.6667V23.7707ZM10.6667 14.6667C9.9595 14.6667 9.28123 14.3857 8.78113 13.8856C8.28103 13.3855 8.00008 12.7072 8.00008 12C8.00008 11.2928 8.28103 10.6145 8.78113 10.1144C9.28123 9.61428 9.9595 9.33333 10.6667 9.33333C11.374 9.33333 12.0523 9.61428 12.5524 10.1144C13.0525 10.6145 13.3334 11.2928 13.3334 12C13.3334 12.7072 13.0525 13.3855 12.5524 13.8856C12.0523 14.3857 11.374 14.6667 10.6667 14.6667Z" fill="black"/>
</g>
</svg>
