<svg width="28" height="28" viewBox="0 0 28 28" fill="none" xmlns="http://www.w3.org/2000/svg">
<path d="M22.7494 8.75H18.8119V5.6875C18.8119 4.41115 18.3049 3.18707 17.4023 2.28455C16.4998 1.38203 15.2757 0.875 13.9994 0.875C12.723 0.875 11.499 1.38203 10.5964 2.28455C9.69392 3.18707 9.18689 4.41115 9.18689 5.6875V8.75H5.24939C4.78542 8.75053 4.34061 8.93508 4.01254 9.26315C3.68446 9.59122 3.49992 10.036 3.49939 10.5V22.75C3.49992 23.214 3.68446 23.6588 4.01254 23.9869C4.34061 24.3149 4.78542 24.4995 5.24939 24.5H22.7494C23.2134 24.4995 23.6582 24.3149 23.9862 23.9869C24.3143 23.6588 24.4989 23.214 24.4994 22.75V10.5C24.4989 10.036 24.3143 9.59122 23.9862 9.26315C23.6582 8.93508 23.2134 8.75053 22.7494 8.75ZM10.9369 5.6875C10.9369 4.87527 11.2595 4.09632 11.8339 3.52199C12.4082 2.94766 13.1872 2.625 13.9994 2.625C14.8116 2.625 15.5906 2.94766 16.1649 3.52199C16.7392 4.09632 17.0619 4.87527 17.0619 5.6875V8.75H10.9369V5.6875Z" fill="#171A23"/>
</svg>
