<svg width="32" height="31" viewBox="0 0 32 31" fill="none" xmlns="http://www.w3.org/2000/svg">
<path d="M16.3125 11.9429C15.3879 11.8604 14.4684 12.1485 13.7563 12.744C13.0442 13.3394 12.5977 14.1933 12.5152 15.1179C12.4327 16.0425 12.7209 16.962 13.3163 17.6741C13.9117 18.3863 14.7657 18.8327 15.6902 18.9152C16.6148 18.9977 17.5343 18.7096 18.2464 18.1141C18.9586 17.5187 19.405 16.6648 19.4875 15.7402C19.57 14.8156 19.2819 13.8961 18.6864 13.184C18.091 12.4718 17.2371 12.0254 16.3125 11.9429ZM16.5199 9.61881C18.0609 9.75634 19.4841 10.5004 20.4765 11.6873C21.4689 12.8741 21.9491 14.4066 21.8116 15.9476C21.6741 17.4886 20.93 18.9118 19.7432 19.9042C18.5563 20.8966 17.0238 21.3768 15.4828 21.2393C13.9418 21.1018 12.5186 20.3577 11.5262 19.1708C10.5339 17.984 10.0536 16.4515 10.1911 14.9105C10.3286 13.3695 11.0727 11.9463 12.2596 10.9539C13.4464 9.96154 14.9789 9.48129 16.5199 9.61881V9.61881ZM24.0991 10.0024C24.0648 10.3876 23.8788 10.7435 23.582 10.9916C23.2853 11.2396 22.9022 11.3597 22.5169 11.3253C22.1317 11.2909 21.7759 11.1049 21.5278 10.8082C21.2797 10.5115 21.1596 10.1284 21.194 9.74313C21.2284 9.35789 21.4144 9.00209 21.7111 8.75399C22.0079 8.50589 22.391 8.38583 22.7762 8.42021C23.1615 8.45459 23.5173 8.6406 23.7654 8.93732C24.0135 9.23404 24.1335 9.61716 24.0991 10.0024V10.0024ZM16.831 6.13267C13.9561 5.87609 13.4859 5.84233 12.1431 5.78222C11.2282 5.74391 10.6061 5.81138 10.0193 5.98156C9.49758 6.13177 9.11301 6.33288 8.69141 6.68647C8.29634 7.00541 7.9784 7.40946 7.76132 7.86847C7.48972 8.41817 7.31326 9.01736 7.19022 9.92351C7.0153 11.201 6.96829 11.6489 6.70498 14.5994C6.4484 17.4743 6.41464 17.9445 6.35453 19.2873C6.31633 20.201 6.38369 20.8243 6.55281 21.4098C6.70524 21.9329 6.90519 22.3174 7.25656 22.7376C7.61332 23.163 7.9562 23.4291 8.43866 23.6666C8.99291 23.9397 9.59315 24.1175 10.4958 24.2402C11.7733 24.4151 12.2213 24.4621 15.1717 24.7254C18.0466 24.982 18.5168 25.0158 19.8596 25.0759C20.7722 25.114 21.3954 25.0466 21.9821 24.8776C22.5028 24.7261 22.8897 24.5252 23.3099 24.1739C23.7365 23.8172 24.0025 23.4743 24.24 22.9919C24.5119 22.4387 24.6898 21.8373 24.8125 20.9346C24.9874 19.6571 25.0344 19.2092 25.2977 16.2587C25.5543 13.3838 25.5881 12.9136 25.6482 11.5708C25.6863 10.6583 25.619 10.0338 25.4489 9.44702C25.316 8.95728 25.0752 8.50352 24.7439 8.1191C24.4252 7.72385 24.0211 7.40588 23.5619 7.18901C23.0122 6.91741 22.4119 6.74084 21.5069 6.61791C20.2294 6.44299 19.7815 6.39598 16.831 6.13267ZM17.0384 3.80857C20.1957 4.09035 20.5886 4.13713 21.8222 4.30578C23.0546 4.47433 23.8797 4.74358 24.5954 5.09794C25.336 5.46155 25.9464 5.91895 26.535 6.62155C27.074 7.25519 27.4685 7.99868 27.6911 8.80028C27.912 9.56612 28.032 10.4272 27.9796 11.67C27.9237 12.9136 27.9036 13.3089 27.6218 16.4661C27.3401 19.6234 27.2933 20.0163 27.1246 21.2499C26.9561 22.4823 26.6857 23.3073 26.3325 24.0231C25.9723 24.7731 25.4523 25.4352 24.8089 25.9627C24.1751 26.5015 23.4316 26.896 22.6301 27.1187C21.8643 27.3397 21.0032 27.4596 19.7605 27.4073C18.5168 27.3514 18.1216 27.3313 14.9643 27.0495C11.807 26.7678 11.4141 26.721 10.1805 26.5523C8.94814 26.3838 8.12308 26.1134 7.40731 25.7602C6.65742 25.3998 5.99543 24.8798 5.46773 24.2366C4.92856 23.603 4.53404 22.8595 4.31166 22.0578C4.08954 21.2919 3.97077 20.4309 4.02312 19.1881C4.07905 17.9445 4.0991 17.5492 4.38088 14.392C4.66266 11.2347 4.70944 10.8418 4.87809 9.60822C5.04675 8.37467 5.31589 7.55066 5.67025 6.835C6.03029 6.08491 6.55037 5.42285 7.19386 4.89542C7.82727 4.35603 8.57083 3.96148 9.37259 3.73935C10.1397 3.51733 10.9983 3.39836 12.2423 3.45081C13.4859 3.50674 13.8812 3.5268 17.0384 3.80857Z" fill="#FF0000"/>
</svg>
