<svg width="121" height="24" viewBox="0 0 121 24" fill="none" xmlns="http://www.w3.org/2000/svg">
<path d="M0.68 18V0.719999H6.092C6.252 0.719999 6.548 0.724 6.98 0.732C7.42 0.739999 7.84 0.771999 8.24 0.827999C9.592 0.995999 10.728 1.48 11.648 2.28C12.576 3.08 13.276 4.096 13.748 5.328C14.22 6.552 14.456 7.896 14.456 9.36C14.456 10.832 14.22 12.184 13.748 13.416C13.276 14.64 12.576 15.652 11.648 16.452C10.728 17.244 9.592 17.724 8.24 17.892C7.84 17.948 7.42 17.98 6.98 17.988C6.548 17.996 6.252 18 6.092 18H0.68ZM3.248 15.612H6.092C6.364 15.612 6.688 15.604 7.064 15.588C7.44 15.572 7.772 15.54 8.06 15.492C8.94 15.324 9.652 14.944 10.196 14.352C10.748 13.752 11.152 13.016 11.408 12.144C11.664 11.272 11.792 10.344 11.792 9.36C11.792 8.344 11.66 7.404 11.396 6.54C11.132 5.668 10.724 4.94 10.172 4.356C9.628 3.764 8.924 3.388 8.06 3.228C7.772 3.172 7.436 3.14 7.052 3.132C6.676 3.116 6.356 3.108 6.092 3.108H3.248V15.612ZM17.0103 2.916V0.48H19.5183V2.916H17.0103ZM17.0103 18V5.04H19.5183V18H17.0103ZM21.4419 18V17.604L28.7979 7.284H22.1139V5.04H32.7819V5.448L25.4379 15.756H32.4219V18H21.4419ZM35.1753 2.916V0.48H37.6833V2.916H35.1753ZM35.1753 18V5.04H37.6833V18H35.1753ZM46.8909 18.36C45.6509 18.36 44.6109 18.06 43.7709 17.46C42.9309 16.852 42.2949 16.032 41.8629 15C41.4309 13.968 41.2149 12.804 41.2149 11.508C41.2149 10.212 41.4269 9.048 41.8509 8.016C42.2829 6.984 42.9149 6.172 43.7469 5.58C44.5869 4.98 45.6189 4.68 46.8429 4.68C48.0589 4.68 49.1069 4.98 49.9869 5.58C50.8749 6.172 51.5589 6.984 52.0389 8.016C52.5189 9.04 52.7589 10.204 52.7589 11.508C52.7589 12.804 52.5189 13.972 52.0389 15.012C51.5669 16.044 50.8909 16.86 50.0109 17.46C49.1389 18.06 48.0989 18.36 46.8909 18.36ZM40.7949 23.76V5.04H43.0269V14.364H43.3149V23.76H40.7949ZM46.5429 16.092C47.3429 16.092 48.0029 15.888 48.5229 15.48C49.0509 15.072 49.4429 14.524 49.6989 13.836C49.9629 13.14 50.0949 12.364 50.0949 11.508C50.0949 10.66 49.9629 9.892 49.6989 9.204C49.4429 8.516 49.0469 7.968 48.5109 7.56C47.9749 7.152 47.2909 6.948 46.4589 6.948C45.6749 6.948 45.0269 7.14 44.5149 7.524C44.0109 7.908 43.6349 8.444 43.3869 9.132C43.1469 9.82 43.0269 10.612 43.0269 11.508C43.0269 12.404 43.1469 13.196 43.3869 13.884C43.6269 14.572 44.0069 15.112 44.5269 15.504C45.0469 15.896 45.7189 16.092 46.5429 16.092ZM54.9284 18V5.04H57.1604V8.184L56.8484 7.776C57.0084 7.36 57.2164 6.98 57.4724 6.636C57.7284 6.284 58.0244 5.996 58.3604 5.772C58.6884 5.532 59.0524 5.348 59.4524 5.22C59.8604 5.084 60.2764 5.004 60.7004 4.98C61.1244 4.948 61.5324 4.968 61.9244 5.04V7.392C61.5004 7.28 61.0284 7.248 60.5084 7.296C59.9964 7.344 59.5244 7.508 59.0924 7.788C58.6844 8.052 58.3604 8.372 58.1204 8.748C57.8884 9.124 57.7204 9.544 57.6164 10.008C57.5124 10.464 57.4604 10.948 57.4604 11.46V18H54.9284ZM69.1233 18.36C67.8273 18.36 66.7033 18.068 65.7513 17.484C64.7993 16.9 64.0633 16.096 63.5433 15.072C63.0313 14.04 62.7753 12.852 62.7753 11.508C62.7753 10.156 63.0393 8.968 63.5673 7.944C64.0953 6.912 64.8353 6.112 65.7873 5.544C66.7393 4.968 67.8513 4.68 69.1233 4.68C70.4193 4.68 71.5433 4.972 72.4953 5.556C73.4473 6.14 74.1833 6.944 74.7033 7.968C75.2233 8.992 75.4833 10.172 75.4833 11.508C75.4833 12.86 75.2193 14.052 74.6913 15.084C74.1713 16.108 73.4353 16.912 72.4833 17.496C71.5313 18.072 70.4113 18.36 69.1233 18.36ZM69.1233 15.996C70.3633 15.996 71.2873 15.58 71.8953 14.748C72.5113 13.908 72.8193 12.828 72.8193 11.508C72.8193 10.156 72.5073 9.076 71.8833 8.268C71.2673 7.452 70.3473 7.044 69.1233 7.044C68.2833 7.044 67.5913 7.236 67.0473 7.62C66.5033 7.996 66.0993 8.52 65.8353 9.192C65.5713 9.856 65.4393 10.628 65.4393 11.508C65.4393 12.868 65.7513 13.956 66.3753 14.772C66.9993 15.588 67.9153 15.996 69.1233 15.996ZM81.965 18V0.719999H93.005V3.084H84.473V7.932H91.565V10.296H84.473V15.636H93.005V18H81.965ZM100.555 18.36C99.3469 18.36 98.3029 18.06 97.4229 17.46C96.5509 16.86 95.8749 16.044 95.3949 15.012C94.9229 13.972 94.6869 12.804 94.6869 11.508C94.6869 10.204 94.9269 9.04 95.4069 8.016C95.8869 6.984 96.5669 6.172 97.4469 5.58C98.3349 4.98 99.3869 4.68 100.603 4.68C101.827 4.68 102.855 4.98 103.687 5.58C104.527 6.172 105.159 6.984 105.583 8.016C106.015 9.048 106.231 10.212 106.231 11.508C106.231 12.804 106.015 13.968 105.583 15C105.151 16.032 104.515 16.852 103.675 17.46C102.835 18.06 101.795 18.36 100.555 18.36ZM100.903 16.092C101.727 16.092 102.399 15.896 102.919 15.504C103.439 15.112 103.819 14.572 104.059 13.884C104.299 13.196 104.419 12.404 104.419 11.508C104.419 10.612 104.295 9.82 104.047 9.132C103.807 8.444 103.431 7.908 102.919 7.524C102.415 7.14 101.771 6.948 100.987 6.948C100.155 6.948 99.4709 7.152 98.9349 7.56C98.3989 7.968 97.9989 8.516 97.7349 9.204C97.4789 9.892 97.3509 10.66 97.3509 11.508C97.3509 12.364 97.4789 13.14 97.7349 13.836C97.9989 14.524 98.3909 15.072 98.9109 15.48C99.4389 15.888 100.103 16.092 100.903 16.092ZM104.419 18V8.676H104.131V0.719999H106.651V18H104.419ZM114.412 18.348C113.516 18.348 112.764 18.204 112.156 17.916C111.548 17.628 111.052 17.252 110.668 16.788C110.292 16.316 110.004 15.804 109.804 15.252C109.604 14.7 109.468 14.16 109.396 13.632C109.324 13.104 109.288 12.64 109.288 12.24V5.04H111.832V11.412C111.832 11.916 111.872 12.436 111.952 12.972C112.04 13.5 112.2 13.992 112.432 14.448C112.672 14.904 113.004 15.272 113.428 15.552C113.86 15.832 114.42 15.972 115.108 15.972C115.556 15.972 115.98 15.9 116.38 15.756C116.78 15.604 117.128 15.364 117.424 15.036C117.728 14.708 117.964 14.276 118.132 13.74C118.308 13.204 118.396 12.552 118.396 11.784L119.956 12.372C119.956 13.548 119.736 14.588 119.296 15.492C118.856 16.388 118.224 17.088 117.4 17.592C116.576 18.096 115.58 18.348 114.412 18.348ZM118.696 18V14.256H118.396V5.04H120.928V18H118.696Z" fill="black"/>
</svg>
