<svg width="28" height="29" viewBox="0 0 28 29" fill="none" xmlns="http://www.w3.org/2000/svg">
<g clip-path="url(#clip0_1470_613)">
<path d="M14.0007 23.7622C16.476 23.7622 18.85 22.7789 20.6003 21.0285C22.3507 19.2782 23.334 16.9042 23.334 14.4289C23.334 11.9535 22.3507 9.57955 20.6003 7.82921C18.85 6.07887 16.476 5.09554 14.0007 5.09554C11.5253 5.09554 9.15133 6.07887 7.40099 7.82921C5.65065 9.57955 4.66732 11.9535 4.66732 14.4289C4.66732 16.9042 5.65065 19.2782 7.40099 21.0285C9.15133 22.7789 11.5253 23.7622 14.0007 23.7622ZM14.0007 26.0955C7.55715 26.0955 2.33398 20.8724 2.33398 14.4289C2.33398 7.98537 7.55715 2.76221 14.0007 2.76221C20.4442 2.76221 25.6673 7.98537 25.6673 14.4289C25.6673 20.8724 20.4442 26.0955 14.0007 26.0955ZM10.3723 15.7939L7.45798 14.885C6.82798 14.6925 6.82448 14.2585 7.59915 13.947L18.9543 9.56037C19.6135 9.29204 19.9868 9.63154 19.7733 10.482L17.8402 19.6054C17.7048 20.2552 17.314 20.4104 16.7715 20.1105L13.7953 17.9079L12.4082 19.2472C12.2658 19.3849 12.1503 19.5027 11.931 19.5319C11.7128 19.5622 11.5332 19.4969 11.4013 19.1352L10.3863 15.7857L10.3723 15.795V15.7939Z" fill="white"/>
</g>
<defs>
<clipPath id="clip0_1470_613">
<rect width="28" height="28" fill="white" transform="translate(0 0.428711)"/>
</clipPath>
</defs>
</svg>
