<svg width="28" height="29" viewBox="0 0 28 29" fill="none" xmlns="http://www.w3.org/2000/svg">
<path d="M22.8743 8.58938C22.7857 8.24171 22.5336 7.97921 22.2455 7.89871C21.7356 7.75521 19.2507 7.42855 14.0007 7.42855C8.75065 7.42855 6.26798 7.75521 5.75348 7.89871C5.46882 7.97805 5.21682 8.24055 5.12698 8.58938C4.99982 9.08405 4.66732 11.1572 4.66732 14.4285C4.66732 17.6999 4.99982 19.7719 5.12698 20.2689C5.21565 20.6154 5.46765 20.8779 5.75465 20.9572C6.26798 21.1019 8.75065 21.4285 14.0007 21.4285C19.2507 21.4285 21.7345 21.1019 22.2478 20.9584C22.5325 20.879 22.7845 20.6165 22.8743 20.2677C23.0015 19.773 23.334 17.6952 23.334 14.4285C23.334 11.1619 23.0015 9.08521 22.8743 8.58938ZM25.1341 8.00955C25.6673 10.0885 25.6673 14.4285 25.6673 14.4285C25.6673 14.4285 25.6673 18.7686 25.1341 20.8476C24.8378 21.9967 23.971 22.9009 22.8731 23.2065C20.8793 23.7619 14.0007 23.7619 14.0007 23.7619C14.0007 23.7619 7.12548 23.7619 5.12815 23.2065C4.02565 22.8962 3.15998 21.9932 2.86715 20.8476C2.33398 18.7686 2.33398 14.4285 2.33398 14.4285C2.33398 14.4285 2.33398 10.0885 2.86715 8.00955C3.16348 6.86038 4.03032 5.95621 5.12815 5.65055C7.12548 5.09521 14.0007 5.09521 14.0007 5.09521C14.0007 5.09521 20.8793 5.09521 22.8731 5.65055C23.9756 5.96088 24.8413 6.86388 25.1341 8.00955V8.00955ZM11.6673 18.5119V10.3452L18.6673 14.4285L11.6673 18.5119Z" fill="white"/>
</svg>
